<svg xmlns="http://www.w3.org/2000/svg" width="18" height="18" viewBox="0 0 100 100">
  <circle cx="50" cy="50" r="48" fill="#003399"/>
  <g fill="#FFCC00">
    <g>
      <g>
        <polygon points="50,18 52,24 58,24 53,28 55,34 50,30 45,34 47,28 42,24 48,24" transform="rotate(0,50,50)"/>
        <polygon points="50,18 52,24 58,24 53,28 55,34 50,30 45,34 47,28 42,24 48,24" transform="rotate(30,50,50)"/>
        <polygon points="50,18 52,24 58,24 53,28 55,34 50,30 45,34 47,28 42,24 48,24" transform="rotate(60,50,50)"/>
        <polygon points="50,18 52,24 58,24 53,28 55,34 50,30 45,34 47,28 42,24 48,24" transform="rotate(90,50,50)"/>
        <polygon points="50,18 52,24 58,24 53,28 55,34 50,30 45,34 47,28 42,24 48,24" transform="rotate(120,50,50)"/>
        <polygon points="50,18 52,24 58,24 53,28 55,34 50,30 45,34 47,28 42,24 48,24" transform="rotate(150,50,50)"/>
        <polygon points="50,18 52,24 58,24 53,28 55,34 50,30 45,34 47,28 42,24 48,24" transform="rotate(180,50,50)"/>
        <polygon points="50,18 52,24 58,24 53,28 55,34 50,30 45,34 47,28 42,24 48,24" transform="rotate(210,50,50)"/>
        <polygon points="50,18 52,24 58,24 53,28 55,34 50,30 45,34 47,28 42,24 48,24" transform="rotate(240,50,50)"/>
        <polygon points="50,18 52,24 58,24 53,28 55,34 50,30 45,34 47,28 42,24 48,24" transform="rotate(270,50,50)"/>
        <polygon points="50,18 52,24 58,24 53,28 55,34 50,30 45,34 47,28 42,24 48,24" transform="rotate(300,50,50)"/>
        <polygon points="50,18 52,24 58,24 53,28 55,34 50,30 45,34 47,28 42,24 48,24" transform="rotate(330,50,50)"/>
      </g>
    </g>
  </g>
</svg> 